<svg xmlns="http://www.w3.org/2000/svg" viewBox="0 0 160 160" role="img" data-art-direction="soft-toy"><defs><linearGradient id="material-0" x1="0" y1="0" x2=".8" y2="1"><stop stop-color="#c39d83"/><stop offset=".48" stop-color="#a9734e"/><stop offset="1" stop-color="#8b5e40"/></linearGradient><linearGradient id="material-1" x1="0" y1="0" x2=".8" y2="1"><stop stop-color="#ecceae"/><stop offset=".48" stop-color="#e4b98b"/><stop offset="1" stop-color="#bb9872"/></linearGradient><linearGradient id="material-2" x1="0" y1="0" x2=".8" y2="1"><stop stop-color="#e1b89d"/><stop offset=".48" stop-color="#d49a73"/><stop offset="1" stop-color="#ae7e5e"/></linearGradient><filter id="soft-shadow" x="-15%" y="-15%" width="130%" height="140%" color-interpolation-filters="sRGB"><feDropShadow dx="0" dy="3" stdDeviation="1.6" flood-color="#493a85" flood-opacity=".16"/></filter></defs><g transform="translate(4 2) scale(.95)" filter="url(#soft-shadow)"><circle cx="39" cy="78" r="22" fill="url(#material-0)" stroke="#493a85" stroke-width="4" stroke-linecap="round" stroke-linejoin="round"/><circle cx="121" cy="78" r="22" fill="url(#material-0)" stroke="#493a85" stroke-width="4" stroke-linecap="round" stroke-linejoin="round"/><circle cx="80" cy="78" r="48" fill="url(#material-0)" stroke="#493a85" stroke-width="4" stroke-linecap="round" stroke-linejoin="round"/><path d="M80 49q-31 0-33 35-2 30 33 42 35-12 33-42-2-35-33-35z" fill="url(#material-1)" stroke="#493a85" stroke-width="4" stroke-linecap="round" stroke-linejoin="round"/><circle cx="68" cy="76" r="3.5" fill="#30285a"/><circle cx="92" cy="76" r="3.5" fill="#30285a"/><path d="M73 89q7 7 14 0" fill="none" stroke="#30285a" stroke-width="3.5" stroke-linecap="round"/><ellipse cx="80" cy="100" rx="17" ry="11" fill="url(#material-2)"/></g></svg>
