<svg xmlns="http://www.w3.org/2000/svg" viewBox="0 0 160 120"><defs><linearGradient id="a" y2="1"><stop stop-color="#e4f3ff"/><stop offset="1" stop-color="#e9f6cf"/></linearGradient><filter id="s"><feDropShadow dy="3" stdDeviation="2" flood-color="#594878" flood-opacity=".18"/></filter></defs><rect width="160" height="120" rx="24" fill="url(#a)"/><path d="M39 114c4-30 37-22 34-47-2-20 25-15 23-38" fill="none" stroke="#fffdf8" stroke-width="18" stroke-linecap="round"/><path d="M39 114c4-30 37-22 34-47-2-20 25-15 23-38" fill="none" stroke="#f2c957" stroke-width="3" stroke-dasharray="5 7" stroke-linecap="round"/><g filter="url(#s)" stroke="#594878" stroke-width="3"><circle cx="40" cy="95" r="9" fill="#67b77b"/><circle cx="74" cy="66" r="9" fill="#f27f72"/><path d="m101 18 5 10 11 2-8 8 2 11-10-5-10 5 2-11-8-8 11-2z" fill="#8e72d9"/></g><path d="m25 37 3 7 8 1-6 5 2 8-7-4-7 4 2-8-6-5 8-1z" fill="#f2c957"/></svg>
